Coordinates
version=1
nRows=14
nColumns=36
inDegrees=yes

Units are S.I. units (second, meters, Newtons, ...)
If the header above contains a line with 'inDegrees', this indicates whether rotational values are in degrees (yes) or radians (no).

endheader
time	pelvis_tilt	pelvis_list	pelvis_rotation	pelvis_tx	pelvis_ty	pelvis_tz	hip_flexion_r	hip_adduction_r	hip_rotation_r	knee_angle_r	knee_angle_r_beta	ankle_angle_r	subtalar_angle_r	mtp_angle_r	hip_flexion_l	hip_adduction_l	hip_rotation_l	knee_angle_l	knee_angle_l_beta	ankle_angle_l	subtalar_angle_l	mtp_angle_l	lumbar_extension	lumbar_bending	lumbar_rotation	arm_flex_r	arm_add_r	arm_rot_r	elbow_flex_r	pro_sup_r	arm_flex_l	arm_add_l	arm_rot_l	elbow_flex_l	pro_sup_l
     29.66666670	      2.97799954	     -5.65942265	      4.18563563	      0.67699650	      1.06417553	      0.86609986	     -0.97983953	      7.64976060	     -9.69170097	     11.80063218	      0.20595989	     14.16540594	     -1.61183577	     -7.49999987	     21.98749569	    -10.17079441	      2.82759540	     58.04528839	      1.01308140	      2.28638499	    -11.78619924	     -7.49999987	    -15.12297328	      9.41930688	      4.53242334	      7.40909521	    -11.79294323	     -6.70479944	     27.71135851	     74.78566239	      4.29187232	     -5.13691920	     -4.43142667	     18.83540754	     69.60306564
     29.68333330	      3.16123819	     -4.94432740	      3.91349550	      0.67651840	      1.06283640	      0.86655804	     -2.83468671	      7.03845929	     -9.51947307	     10.64738078	      0.18583185	     14.15924449	     -1.30797922	     -7.49999987	     22.79732450	     -9.60195777	      1.65111540	     54.28823492	      0.94750844	      3.50653467	    -11.38654104	     -7.49999987	    -15.54435951	      8.42748232	      5.15635787	      8.05905765	    -12.22541147	     -6.90284505	     29.47954942	     74.87881951	      3.30263037	     -5.16800651	     -4.66525748	     16.99235971	     69.79551414
     29.70000000	      2.82998877	     -4.41634256	      3.57335613	      0.67493761	      1.06252565	      0.86647754	     -4.04637774	      6.51451449	     -9.31113014	      9.68573173	      0.16904791	     14.16890069	     -1.08899338	     -7.49999987	     24.02054739	     -9.10912735	      0.55604713	     50.19761592	      0.87611367	      4.28722548	    -10.80292393	     -7.49999987	    -15.25260651	      7.68661422	      5.54206738	      8.95825646	    -12.69615730	     -6.91249944	     30.68590690	     74.92178457	      1.81963023	     -5.29591373	     -4.76133011	     15.88788043	     69.82649892
     29.71666670	      3.11059475	     -3.80978572	      3.30212647	      0.67134306	      1.06331465	      0.86563364	     -5.88347976	      5.88719029	     -9.10541230	      8.78156999	      0.15326731	     14.69039715	     -0.80925862	     -7.49999987	     24.47348990	     -8.48491419	     -0.58248039	     45.76551280	      0.79875888	      4.74856413	     -9.90314166	     -7.49999987	    -15.98089493	      6.96152453	      6.27160060	      9.39317673	    -13.55599058	     -6.56695044	     33.81071024	     74.52510409	      0.72428138	     -5.29748699	     -5.44168162	     15.09417818	     69.45675661
     29.73333330	      2.87156231	     -3.42978223	      3.00792532	      0.66729206	      1.06285513	      0.86458838	     -7.18955981	      5.46483744	     -8.78536186	      7.78037748	      0.13579320	     15.05934178	     -0.83704754	     -7.49999987	     25.41989205	     -7.98502493	     -1.63450329	     41.00143797	      0.71561009	      4.70086859	     -9.07632060	     -7.49999987	    -15.89827899	      6.51654943	      6.72868256	     10.28533547	    -14.16165677	     -6.45857714	     35.55718920	     74.01139923	     -0.81548696	     -5.35408528	     -5.77314257	     14.69054873	     68.99779860
     29.75000000	      2.70602079	     -3.10833007	      2.93324953	      0.66422208	      1.06074482	      0.86319774	     -8.60860922	      5.14803123	     -8.75318111	      6.71330546	      0.11716928	     15.68856487	     -0.40301694	     -7.49999987	     26.18670011	     -7.30946211	     -2.22863739	     35.90623660	      0.62668205	      4.65320161	     -7.96179048	     -7.49999987	    -15.98291286	      6.28483165	      6.75533089	     11.07502227	    -14.77994267	     -6.03517378	     37.98390250	     73.56714800	     -2.29057917	     -5.28867348	     -6.18073491	     14.01920844	     68.54508201
     29.76666670	      2.37777700	     -2.93110797	      2.96972219	      0.66382401	      1.05654915	      0.86145522	     -9.95699023	      5.06352617	     -8.47151077	      5.55107920	      0.09688461	     15.49569596	     -0.60284542	     -7.49999987	     26.91433815	     -6.56860025	     -2.27252092	     30.42386646	      0.53099664	      4.97405192	     -6.50426474	     -7.49999987	    -15.79086595	      6.23742679	      6.75533703	     11.56554223	    -15.44472853	     -5.56849008	     40.16208234	     73.31786012	     -3.72008299	     -5.12740148	     -6.56990768	     13.38375875	     68.22588426
     29.78333330	      2.37846734	     -2.68543933	      3.13402613	      0.66583758	      1.05208459	      0.85926583	    -11.71731357	      4.91574364	     -8.82465776	      4.57122919	      0.07978300	     15.49998447	      0.60278977	     -7.49999987	     26.97076564	     -5.63974224	     -1.83924058	     24.66898575	      0.43055502	      5.78164172	     -4.75268586	     -7.49999987	    -16.04451760	      6.20481800	      6.41266143	     11.83512818	    -15.99433713	     -5.15310566	     42.77849166	     73.24862692	     -5.03079697	     -4.93676876	     -7.06138191	     12.70148194	     68.22428258
     29.80000000	      2.16234989	     -2.32505509	      3.51410757	      0.66895013	      1.04919133	      0.85707805	    -13.25290565	      4.68133081	     -9.09709967	      3.84744101	      0.06715051	     15.03322980	      1.16049640	     -7.49999987	     27.01089137	     -4.52315000	     -0.95379904	     19.17656435	      0.33469419	      7.05405522	     -2.79349015	     -7.49999987	    -15.85150846	      6.00410196	      5.77297405	     11.84824350	    -16.20615673	     -5.10436904	     44.54046698	     72.69623485	     -6.49320259	     -4.92808617	     -7.22488893	     12.48418403	     68.03849351
     29.81666670	      1.94015336	     -1.79437204	      3.92231962	      0.67161462	      1.04765780	      0.85555345	    -14.64780271	      4.21839724	     -9.47783993	      3.51116523	      0.06128139	     14.78250971	      1.75770938	     -7.49999987	     26.92688407	     -3.30913089	      0.05933062	     14.62909805	      0.25532593	      8.39014874	     -1.11251450	     -7.49999987	    -15.50977926	      5.51112427	      5.13003631	     11.58262455	    -16.29157324	     -4.96113559	     45.85275045	     71.86415478	     -7.87022713	     -5.14911513	     -6.92030879	     12.40486830	     67.62181965
     29.83333330	      1.74259551	     -1.17993846	      4.22531540	      0.67351112	      1.04492673	      0.85489108	    -15.83662743	      3.61448167	     -9.80950954	      3.55805814	      0.06209983	     14.94339694	      2.17400118	     -7.49999987	     26.89576522	     -2.15449469	      0.92260982	     11.68746309	      0.20398471	      9.51581425	      0.06309936	     -7.49999987	    -15.06513714	      4.82006466	      4.47953936	     11.25766564	    -16.22815386	     -4.72241514	     46.87214424	     71.33290605	     -9.21248414	     -5.54543404	     -6.61014823	     12.42749312	     67.25064715
     29.85000000	      1.66309063	     -0.60901118	      4.40248612	      0.67512533	      1.03967759	      0.85414744	    -16.90787161	      3.01554643	    -10.08449895	      3.91021750	      0.06824617	     15.59808309	      2.44566860	     -7.49999987	     26.91813123	     -1.17835536	      1.56307800	     10.56392262	      0.18437523	     10.16423578	      0.48946057	     -7.49999987	    -14.66284693	      4.05613297	      4.00308879	     11.06114559	    -16.13316780	     -4.41690575	     47.48168050	     71.47518935	    -10.39875118	     -6.08482441	     -6.27773579	     12.61244175	     67.19284564
     29.86666670	      1.83860648	     -0.10927215	      4.42624477	      0.67658105	      1.03259076	      0.85290768	    -18.01571913	      2.46461980	    -10.35214816	      4.56288629	      0.07963739	     16.47859324	      2.53063464	     -7.49999987	     26.81995449	     -0.44528052	      1.75107438	     11.13255958	      0.19429982	     10.27896136	      0.54434628	     -7.49999987	    -14.52195038	      3.29314474	      3.63734884	     11.07055262	    -15.97137309	     -3.88742645	     47.90424745	     71.38369112	    -11.45137085	     -6.76404264	     -5.95648974	     13.01345379	     66.88013764
     29.88333330	      2.10127882	      0.15669038	      4.32717642	      0.67763652	      1.02574188	      0.85126264	    -18.98688545	      2.06816595	    -10.14194313	      5.57206935	      0.09725096	     17.06648484	      1.93537772	     -7.49999987	     26.74859981	     -0.02395094	      1.82911032	     13.14359172	      0.22939895	      9.59101929	     -0.04870475	     -7.49999987	    -14.51000274	      2.81378111	      3.29876953	     11.36866436	    -15.79870801	     -3.26056118	     48.21442512	     71.54252635	    -12.07880709	     -7.37395809	     -5.74587748	     12.88252119	     66.75997313
